<svg xmlns="http://www.w3.org/2000/svg" width="24" height="24" viewBox="0 0 24 24" fill="none" stroke="currentColor" stroke-width="1.75" stroke-linecap="round" stroke-linejoin="round">
<path d="M9 4.5c-2 0-3.5 1.4-3.5 3.2 0 .3 0 .6.1.8A3.7 3.7 0 0 0 4 15.3C4.6 17 6.2 18 8 18h1"/><path d="M15 4.5c2 0 3.5 1.4 3.5 3.2 0 .3 0 .6-.1.8a3.7 3.7 0 0 1 1.6 6.8C19.4 17 17.8 18 16 18h-1"/><path d="M9 4.5v15"/><path d="M15 4.5v15"/><path d="M9 8H7"/><path d="M15 8h2"/><path d="M9 12H6.5"/><path d="M15 12h2.5"/><path d="M9 16H7"/><path d="M15 16h2"/><circle cx="6.5" cy="8" r=".8"/><circle cx="17.5" cy="8" r=".8"/><circle cx="6" cy="12" r=".8"/><circle cx="18" cy="12" r=".8"/>
</svg>
